# AST/ASF file generated using VICON BodyLanguage
# -----------------------------------------------
:version 1.10
:name VICON
:units
  mass 1.0
  length 0.45
  angle deg
:documentation
   .ast/.asf automatically generated from VICON data using
   VICON BodyBuilder and BodyLanguage model FoxedUp or BRILLIANT.MOD
:root
   order TX TY TZ RX RY RZ
   axis XYZ
   position 0 0 0  
   orientation 0 0 0 
:bonedata
  begin
     id 1 
     name lhipjoint
     direction 0.662698 -0.695252 0.27831 
     length 2.53073 
     axis 0 0 0  XYZ
  end
  begin
     id 2 
     name lfemur
     direction 0.34202 -0.939693 0  
     length 7.16147  
     axis 0 0 20  XYZ
    dof rx ry rz
    limits (-160.0 20.0)
           (-70.0 70.0)
           (-60.0 70.0)
  end
  begin
     id 3 
     name ltibia
     direction 0.34202 -0.939693 0   
     length 7.63967   
     axis 0 0 20   XYZ
    dof rx
    limits (-10.0 170.0)
  end
  begin
     id 4 
     name lfoot
     direction 0.0938457 -0.257721 0.961651   
     length 1.89793   
     axis -90 7.62852e-016 20   XYZ
    dof rx rz
    limits (-45.0 90.0)
           (-70.0 20.0)
  end
  begin
     id 5 
     name ltoes
     direction -0.00116841 -0.0030592 0.999995   
     length 0.955649   
     axis -90 7.62852e-016 20   XYZ
    dof rx
    limits (-90.0 20.0)
  end
  begin
     id 6 
     name rhipjoint
     direction -0.649445 -0.705948 0.282592   
     length 2.49238  
     axis 0 0 0  XYZ 
  end
  begin
     id 7 
     name rfemur
     direction -0.34202 -0.939693 0   
     length 6.90728   
     axis 0 0 -20   XYZ
    dof rx ry rz
    limits (-160.0 20.0)
           (-70.0 70.0)
           (-70.0 60.0)
  end
  begin
     id 8 
     name rtibia
     direction -0.34202 -0.939693 0   
     length 7.72868   
     axis 0 0 -20   XYZ
    dof rx
    limits (-10.0 170.0)
 end
 begin
     id 9 
     name rfoot
     direction -0.0920068 -0.252865 0.963117   
     length 1.97476  
     axis -90 -7.62852e-016 -20   XYZ
    dof rx rz
    limits (-45.0 90.0)
           (-20.0 70.0)
  end
  begin
     id 10 
     name rtoes
     direction 0.000391322 0.00230649 0.999997   
     length 0.992641   
     axis -90 -7.62852e-016 -20   XYZ
    dof rx
    limits (-90.0 20.0)
  end
  begin
     id 11 
     name lowerback
     direction -0.00875327 0.998321 -0.0572635   
     length 2.20024   
     axis 0 0 0   XYZ
    dof rx ry rz
    limits (-20.0 45.0)
           (-30.0 30.0)
           (-30.0 30.0)
  end
  begin
     id 12 
     name upperback
     direction 0.00753931 0.999972 -0.000360425   
     length 2.20538   
     axis 0 0 0   XYZ
    dof rx ry rz
    limits (-20.0 45.0)
           (-30.0 30.0)
           (-30.0 30.0)
  end
  begin
     id 13 
     name thorax
     direction 0.0117767 0.999601 0.0256663   
     length 2.21508   
     axis 0 0 0   XYZ
    dof rx ry rz
    limits (-20.0 45.0)
           (-30.0 30.0)
           (-30.0 30.0)
  end
  begin
     id 14 
     name lowerneck
     direction 0.060228 0.994909 0.0807986   
     length 1.7607   
     axis 0 0 0   XYZ
    dof rx ry rz
    limits (-20.0 45.0)
           (-30.0 30.0)
           (-30.0 30.0)
  end
  begin
     id 15 
     name upperneck
     direction -0.0563647 0.959594 -0.275685   
     length 1.75612   
     axis 0 0 0   XYZ
    dof rx ry rz
    limits (-20.0 45.0)
           (-30.0 30.0)
           (-30.0 30.0)
  end
  begin
     id 16
     name head
     direction -0.0161544 0.99458 -0.102714  
     length 1.79288  
     axis 0 0 0   XYZ
    dof rx ry rz
    limits (-20.0 45.0)
           (-30.0 30.0)
           (-30.0 30.0)
  end
  begin
     id 17 
     name lclavicle
     direction 0.93913 0.332189 -0.087669  
     length 3.52087  
     axis 0 0 0   XYZ
    dof ry rz
    limits (-20.0 10.0)
           (0.0 20.0)
  end
  begin
     id 18 
     name lhumerus
     direction 1 -4.48974e-011 -2.70836e-027   
     length 5.35289   
     axis -180 -30 -90   XYZ
    dof rx ry rz
    limits (-60.0 90.0)
           (-90.0 90.0)
           (-90.0 90.0)
  end
  begin
     id 19
     name lradius
     direction 1 -4.48961e-011 -9.76021e-027   
     length 3.27727   
     axis -180 -30 -90   XYZ
    dof rx
    limits (-10.0 170.0)
  end
  begin
     id 20
     name lwrist
     direction 1 -4.49103e-011 -2.23668e-026   
     length 1.63864   
     axis 1.44924e-014 90 90   XYZ
    dof ry
    limits (-180.0 0.0)
 end
  begin
     id 21 
     name lhand
     direction 1 3.0697e-005 0.000161777   
     length 0.54443   
     axis 2.85318e-014 90 90   XYZ
    dof rx rz
    limits (-90.0 90.0)
           (-45.0 45.0)
  end
  begin
     id 22 
     name lfingers
     direction 1 -4.49027e-011 -8.9447e-026   
     length 0.438912   
     axis 5.70628e-014 90 90   XYZ
    dof rx
    limits (0.0 90.0)
  end
  begin
     id 23
     name lthumb
     direction 0.707058 2.6516e-005 0.707156   
     length 0.630274   
     axis -90 45 -3.53137e-014   XYZ
    dof rx rz
    limits (-45.0 45.0)
           (-45.0 45.0)
  end
  begin
     id 24 
     name rclavicle
     direction -0.95274 0.284984 -0.105215   
     length 3.43401  
     axis 0 0 0   XYZ 
    dof ry rz
    limits (-10.0 20.0)
           (-20.0 0.0)
  end
  begin
     id 25 
     name rhumerus
     direction -0.999999 -0.000575019 -0.00106829  
     length 5.52077   
     axis -180 30 90   XYZ
    dof rx ry rz
    limits (-90.0 60.0)
           (-90.0 90.0)
           (-90.0 90.0)
  end
  begin
     id 26 
     name rradius
     direction -1 -4.4879e-011 -6.35415e-027   
     length 3.32364   
     axis -180 30 90   XYZ
    dof rx
    limits (-10.0 170.0)
  end
  begin
     id 27 
     name rwrist
     direction -1 -4.49048e-011 -9.98542e-027   
     length 1.66182   
     axis 6.32482e-015 -90 -90   XYZ
    dof ry
    limits (-180.0 0.0)
  end
  begin
     id 28
     name rhand
     direction -1 -4.48978e-011 -1.99771e-026   
     length 0.732235   
     axis 1.27479e-014 -90 -90   XYZ
    dof rx rz
    limits (-90.0 90.0)
           (-45.0 45.0)
  end
  begin
     id 29
     name rfingers
     direction -1 -4.49144e-011 -3.99245e-026   
     length 0.590347   
     axis 2.5496e-014 -90 -90   XYZ
    dof rx
    limits (0.0 90.0)
  end
  begin
     id 30
     name rthumb
     direction -0.707107 -6.35121e-011 0.707107   
     length 0.847624   
     axis -90 -45 -2.82974e-014   XYZ
    dof rx rz
    limits (-45.0 45.0)
           (-45.0 45.0)
  end
:hierarchy
  begin
    root lhipjoint rhipjoint lowerback
    lhipjoint lfemur
    lfemur ltibia
    ltibia lfoot
    lfoot ltoes
    rhipjoint rfemur
    rfemur rtibia
    rtibia rfoot
    rfoot rtoes
    lowerback upperback
    upperback thorax
    thorax lowerneck lclavicle rclavicle
    lowerneck upperneck
    upperneck head
    lclavicle lhumerus
    lhumerus lradius
    lradius lwrist
    lwrist lhand lthumb
    lhand lfingers
    rclavicle rhumerus
    rhumerus rradius
    rradius rwrist
    rwrist rhand rthumb
    rhand rfingers
  end

#!OML:ASF G:\Work\Work\Patient Classification 1\Elijah\terrain1\Elijah.ASF
:FULLY-SPECIFIED
:DEGREES
4575
root 15.577 19.9936 11.6876 545.437 80.3078 541.499
lowerback 7.17908 1.72426 4.80522
upperback 2.26019 2.77772 2.31912
thorax -1.57518 1.42465 -0.533275
lowerneck -7.03004 13.5599 15.0195
upperneck 32.6101 23.9215 -12.2837
head 16.313 11.4182 -3.17932
rclavicle 6.75868e-015 -2.22639e-014
rhumerus -31.8771 1.73593 -82.9568
rradius 47.1892
rwrist -9.70671
rhand -17.999 23.0695
rfingers 7.12502
rthumb 8.27131 -6.74854
lclavicle 6.75868e-015 -2.22639e-014
lhumerus -47.1031 9.79391 80.9789
lradius 27.2568
lwrist -2.45857
lhand -7.32289 26.4834
lfingers 7.12502
lthumb 18.5603 55.6179
rfemur -14.8457 -2.7496 24.4342
rtibia 33.5569
rfoot -13.8297 -3.29618
rtoes -12.2001
lfemur -53.2516 10.4174 -23.4739
ltibia 105.92
lfoot -3.92491 -14.7349
ltoes -4.11977
4576
root 15.642 20.0269 11.6799 545.601 80.3085 541.526
lowerback 7.2763 1.68977 4.37131
upperback 2.2616 2.71857 2.57446
thorax -1.66374 1.39528 -0.0284326
lowerneck -6.75775 13.6578 14.6698
upperneck 32.182 24.1815 -12.591
head 16.0891 11.4845 -3.21637
rclavicle -1.47101e-014 -9.54166e-015
rhumerus -31.6929 2.60003 -82.8854
rradius 47.8967
rwrist -9.76859
rhand -17.9012 23.1997
rfingers 7.12502
rthumb 8.36569 -6.61467
lclavicle -1.47101e-014 -9.54166e-015
lhumerus -47.4551 10.2557 81.092
lradius 27.3585
lwrist -1.0255
lhand -7.79372 25.995
lfingers 7.12502
lthumb 18.1073 55.1722
rfemur -14.5284 -2.42001 24.4024
rtibia 33.1489
rfoot -13.5205 -3.27006
rtoes -10.4146
lfemur -54.572 10.628 -23.9358
ltibia 105.529
lfoot -4.91609 -14.246
ltoes -7.66387
4577
root 15.7051 20.0459 11.6685 545.628 80.3557 541.49
lowerback 7.45791 1.83848 4.24961
upperback 2.29652 2.91665 2.54151
thorax -1.72671 1.49329 -0.0171221
lowerneck -7.09986 13.6173 15.5033
upperneck 32.296 24.2081 -13.1727
head 16.4917 11.5046 -3.53204
rclavicle 4.05521e-014 6.36111e-015
rhumerus -31.6159 3.01293 -83.032
rradius 48.6425
rwrist -9.66267
rhand -17.8258 23.2835
rfingers 7.12502
rthumb 8.43842 -6.5279
lclavicle 4.05521e-014 6.36111e-015
lhumerus -47.5228 10.0221 81.0643
lradius 27.3764
lwrist -0.174978
lhand -8.06036 25.8739
lfingers 7.12502
lthumb 17.8508 55.0747
rfemur -14.1992 -2.01177 24.3768
rtibia 32.835
rfoot -13.2838 -3.52188
rtoes -9.48654
lfemur -55.5857 10.8946 -24.4257
ltibia 105.048
lfoot -5.83106 -14.0186
ltoes -4.31549
4578
root 15.7654 20.0667 11.632 544.782 79.7952 540.929
lowerback 7.94874 1.72215 4.98933
upperback 2.44577 2.83525 2.13735
thorax -1.7893 1.45437 -0.852877
lowerneck -7.72605 13.5971 17.0523
upperneck 32.7062 24.2984 -13.9949
head 17.3253 11.5876 -4.02355
rclavicle -2.96189e-014 -2.94201e-014
rhumerus -31.4553 2.96543 -83.3466
rradius 49.2538
rwrist -9.28506
rhand -17.7081 23.298
rfingers 7.12502
rthumb 8.552 -6.50877
lclavicle -2.96189e-014 -2.94201e-014
lhumerus -47.1647 9.42565 80.678
lradius 27.063
lwrist 0.427126
lhand -7.30691 25.8523
lfingers 7.12502
lthumb 18.5756 54.9854
rfemur -13.5117 -2.72747 24.2182
rtibia 32.5504
rfoot -13.0453 -3.68802
rtoes -10.8019
lfemur -56.22 10.1547 -25.0285
ltibia 104.405
lfoot -6.48989 -13.6776
ltoes -2.17133
4579
root 15.8294 20.0849 11.6586 544.985 79.7149 540.662
lowerback 7.65355 1.87817 3.93184
upperback 2.44316 2.95737 2.57379
thorax -1.70061 1.51765 0.185007
lowerneck -7.54945 13.6077 16.03
upperneck 32.1426 24.1587 -13.6533
head 16.6976 11.4582 -3.77852
rclavicle 1.37161e-014 -1.43125e-014
rhumerus -31.0686 3.35415 -82.8072
rradius 49.6358
rwrist -8.96855
rhand -17.4793 23.2733
rfingers 7.12502
rthumb 8.77288 -6.52441
lclavicle 1.37161e-014 -1.43125e-014
lhumerus -46.843 9.5616 81.0772
lradius 26.6089
lwrist 1.04052
lhand -10.6013 26.4326
lfingers 7.12502
lthumb 15.4045 55.8387
rfemur -13.6225 -2.61897 24.4243
rtibia 32.2852
rfoot -12.7938 -4.14833
rtoes -11.4761
lfemur -57.7623 10.3386 -25.2029
ltibia 103.811
lfoot -6.63415 -14.1213
ltoes -1.24123
